# xmcd
#
# Track frame offsets:
#	150
#	13200
#	23925
#	32587
#	44325
#	56325
#	65212
#	75450
#	85412
#	98537
#	111450
#	124705
#	134375
#	144795
#
# Disc length: 2068
#
# Revision: 3
# Processed by: cddbd v1.5.1PL0 Copyright (c) Steve Scherf et al.
# Submitted via: OrangeCD 4.2
# Normalized: r2:DSETVAR1
#
DISCID=b808120e
DTITLE=Various Artist - Street Corner Singin'  -  The Best Of Doo-Wop Era
DYEAR=1986
DGENRE=Doo Wop
TTITLE0=The Penguines - Earth Angel  ( Will You Be Mine )
TTITLE1=The Fleetwoods - Come Softly To Me
TTITLE2=The Cleftones - Heart And Soul
TTITLE3=The Vogues - Turn Around And Look At Me
TTITLE4=The Skyliners - Since I Don't Have You
TTITLE5=The Clovers - Love Potion No.9
TTITLE6=The Dovells - Bristol Stomp
TTITLE7=The Marcels - Blue Moon
TTITLE8=The Duprees - You Belong To Me
TTITLE9=The Crew Cuts - Sh-Boom
TTITLE10=Johnny Maestro - Sixteen Candles
TTITLE11=The Diamonds - Little Darlin'
TTITLE12=The Bobbettes - Mr. Lee
TTITLE13=The Regents - Barbara Ann
EXTD=
EXTT0=
EXTT1=
EXTT2=
EXTT3=
EXTT4=
EXTT5=
EXTT6=
EXTT7=
EXTT8=
EXTT9=
EXTT10=
EXTT11=
EXTT12=
EXTT13=
PLAYORDER=
